<svg xmlns="http://www.w3.org/2000/svg" viewBox="0 0 467.56 297.13"><g id="Layer_2" data-name="Layer 2"><g id="Layer_1-2" data-name="Layer 1"><path d="M28.12,61.57Q16.77,139.6.69,216.85l35.36,4.79c.31-3.61.66-7.21,1.09-10.8.09-.83.2-1.65.3-2.48,0,.3-.4,2.77-.09.65.28-1.93.56-3.86.86-5.78q1.78-11.13,4.35-22.1a319.12,319.12,0,0,1,13-42.23c.6-1.56,1.22-3.11,1.84-4.66.36-.88,1.93-4.56.76-1.86,1.55-3.57,3.14-7.13,4.8-10.65q4.83-10.19,10.35-20A335.2,335.2,0,0,1,97.18,65.48c1.71-2.29-1.56,1.91.25-.31l1.55-2c1-1.31,2.1-2.6,3.16-3.89,2.4-2.9,4.84-5.77,7.4-8.52,2.17-2.33,4.41-4.59,6.78-6.72.79-.71,1.59-1.39,2.39-2.08.19-.15,2.26-1.71.66-.54s.51-.32.7-.44c.86-.56,1.71-1.15,2.6-1.69,1.53-.93,3.12-1.71,4.71-2.52,1.84-.94-.57.31-.81.37.73-.18,1.44-.48,2.15-.69s4.88-1,2.77-.75c-2.27.27.3,0,.64,0,1.26,0,2.53.08,3.79.1,2.09,0-.86,0-1.1-.13.69.24,1.46.34,2.17.53s4.46,1.73,2.74.86c-1.95-1,.3.23.55.38.86.51,1.74,1,2.59,1.52.63.4,1.24.86,1.87,1.27,2.06,1.33-1.72-1.82-.08,0,1,1.13,2.25,2.08,3.28,3.18.84.89,3.4,4.5,1.53,1.66,2,3,3.6,6.05,5.27,9.22,1.31,2.5-.71-2.32.14.37.26.8.6,1.59.87,2.38.56,1.6,1.06,3.22,1.52,4.85,1.09,3.83,1.95,7.72,2.68,11.62.63,3.41,1.14,6.83,1.65,10.26-.41-2.73.05.37.1.78.11.93.23,1.86.34,2.79.25,2.16.49,4.34.71,6.51q1.25,12.57,1.62,25.2a377.13,377.13,0,0,1-2.52,55.1s-.38,3.06-.16,1.31c.19-1.49-.27,1.93-.32,2.25-.35,2.47-.74,4.93-1.15,7.39q-1.07,6.47-2.38,12.88-2.9,14.22-6.91,28.16l22.14-12.57a11.36,11.36,0,0,1,4.06,2.32c.3.29,2.77,5.12,2.14,3.35-.31-.87-1.52-2.73-.37-.71,1,1.82,0,.43,0-.85-.06-4.66.32-9.29.64-13.94.63-9,1.4-18,2.6-27-.56,4.16.5-3.07.63-3.89.39-2.35.8-4.69,1.25-7q1.35-7,3.17-13.81,1.62-6,3.7-11.9c.43-1.21.88-2.42,1.35-3.62.19-.49,1.42-3.51.54-1.42s.42-.9.64-1.38c.64-1.4,1.3-2.78,2-4.15a109.22,109.22,0,0,1,6.55-11.28c1.14-1.71,2.33-3.4,3.58-5-2.05,2.67-.35.5.09,0,1-1.17,2-2.36,3.09-3.51a120.28,120.28,0,0,1,9-8.5c3.66-3.23-1.83,1.17.61-.51.85-.58,1.66-1.2,2.51-1.79q3.16-2.19,6.51-4.14A104.79,104.79,0,0,1,239.05,89c-3.36,1.44,1.77-.61,2.93-1,2.45-.86,4.92-1.65,7.42-2.35a122.1,122.1,0,0,1,13-2.86c.55-.1,3.84-.56,1.47-.25s.93-.09,1.49-.14c2.59-.27,5.18-.45,7.79-.55,4.36-.17,9.22-.52,13.55.25-3.41-.61-.13.1.24.33a18.45,18.45,0,0,1-2.57-1.66c2.27,1.83.49.21,0-.52.84,1.17,1.4,2.45,2.12,3.69-1.95-3.36.23,1.08.63,2.46.78,2.7,1.4,5.45,1.94,8.2.24,1.22.4,2.45.66,3.67.69,3.36-.35-4.14.22,1.68.28,2.79.52,5.57.67,8.37,1.22,22.27-1.64,44.55,0,66.81s6.24,44.49,14.66,65.22c7.76,19.1,18.71,37.71,37,48.44,22.3,13.08,49.94,9.8,71.85-2.33,21.45-11.87,36.44-31.84,50.93-51,5.71-7.54,1.44-20.46-6.46-24.63-9.48-5-18.53-1.59-24.63,6.46-1.51,2-3,4-4.56,6-2,2.56,2.57-3.2-.8,1-.7.87-1.39,1.75-2.09,2.63-3.32,4.13-6.76,8.18-10.41,12-3.25,3.46-6.74,6.58-10.25,9.76-3.87,3.51,1.6-1-.92.8-.9.65-1.8,1.31-2.72,1.94a72.63,72.63,0,0,1-7.7,4.66c-1,.51-2,1-2.95,1.46-.61.3-3.15,1.12-.24.12-2.33.8-4.62,1.64-7,2.27-1.05.28-2.11.53-3.17.75s-4.51.66-.82.26a53.82,53.82,0,0,1-8,.29c-1.06-.05-2.12-.13-3.19-.24,3.55.35.8.11.06-.11-1.28-.37-2.6-.62-3.88-1-.9-.28-4.15-1.66-.87-.16a44.54,44.54,0,0,1-5.22-2.83c-.84-.53-1.64-1.09-2.45-1.65,3.28,2.25-.24-.26-.94-.9a62.09,62.09,0,0,1-4.68-4.78c-.61-.7-2.7-3.35-.49-.44-.61-.8-1.2-1.63-1.77-2.46a94.23,94.23,0,0,1-6.92-11.87c-.57-1.14-1.11-2.3-1.64-3.46-.39-.85-1.71-4-.3-.6-.85-2.07-1.66-4.17-2.42-6.28q-3-8.26-5.29-16.77-2-7.6-3.48-15.35c-.28-1.52-.54-3-.79-4.57-.11-.71-.7-4.63-.29-1.62-.42-3.06-.72-6.14-1-9.21a297.75,297.75,0,0,1-.36-33.8c.73-22.93,2.24-47.78-5.62-69.77-4.58-12.8-13.32-24-27.52-26.46-10.47-1.79-21.22-1.42-31.71-.1-42.29,5.33-80.43,28.74-98.81,68.14-10.1,21.67-14.62,44.63-17.28,68.26-2.48,22.1-9.22,56.11,18.16,65.17,9.3,3.08,19.57-3.58,22.14-12.57a385.63,385.63,0,0,0,14.87-110.11,387.7,387.7,0,0,0-5-56.61c-2.88-18-8.59-35.33-20.6-49.33C162.37,5.09,143.35-2.38,124.3.67,107.37,3.39,93,15.22,82,27.68A321.82,321.82,0,0,0,28.8,110.39,344.07,344.07,0,0,0,.05,221.64c-.76,8.9,7.43,16.58,15.61,17.68s17.92-4.1,19.75-12.9Q51.46,149.21,62.84,71.14c1.35-9.28-2.29-19.8-12.57-22.15-8.53-1.94-20.7,2.61-22.15,12.58Z"/></g></g></svg>