<svg xmlns="http://www.w3.org/2000/svg" viewBox="0 0 1612.82 982.05"><defs><style>.cls-1{fill:none;stroke:#000;stroke-miterlimit:10;stroke-width:12px;}</style></defs><g id="Layer_2" data-name="Layer 2"><g id="Layer_1-2" data-name="Layer 1"><path d="M1574,12a26.87,26.87,0,0,1,26.84,26.84V943.21A26.87,26.87,0,0,1,1574,970.05H38.84A26.87,26.87,0,0,1,12,943.21V38.84A26.87,26.87,0,0,1,38.84,12H1574m0-12H38.84A38.84,38.84,0,0,0,0,38.84V943.21a38.84,38.84,0,0,0,38.84,38.84H1574a38.84,38.84,0,0,0,38.84-38.84V38.84A38.84,38.84,0,0,0,1574,0Z"/><line class="cls-1" x1="13.88" y1="9.09" x2="805.07" y2="800.28"/><line class="cls-1" x1="1596.46" y1="7.9" x2="800.4" y2="803.96"/></g></g></svg>